<svg width="603" height="103" xmlns="http://www.w3.org/2000/svg" xmlns:xlink="http://www.w3.org/1999/xlink" xml:space="preserve" overflow="hidden"><defs><clipPath id="clip0"><rect x="388" y="637" width="603" height="103"/></clipPath></defs><g clip-path="url(#clip0)" transform="translate(-388 -637)"><path d="M88.2383 61.5488C86.4421 62.6843 84.3269 62.825 82.719 61.9181 80.6766 60.765 79.5537 58.0644 79.5537 54.3086L79.5537 43.0716C79.5537 37.6452 77.4083 33.784 73.8209 32.7414 67.7413 30.9703 63.1691 38.409 61.4508 41.2025L50.7288 58.5869 50.7288 37.3388C50.6082 32.45 49.0205 29.5258 46.0058 28.6441 44.0111 28.0612 41.0267 28.2949 38.1276 32.7314L14.106 71.3036C10.8901 65.1985 9.2136 58.4002 9.22227 51.5 9.22227 28.2647 27.8427 9.36295 50.7288 9.36295 73.6149 9.36295 92.2327 28.2647 92.2327 51.5 92.2327 51.5402 92.2428 51.5754 92.2453 51.613 92.2453 51.6532 92.2378 51.6884 92.2403 51.7286 92.4563 56.228 90.9992 59.8078 88.2383 61.5513ZM101.455 51.5025 101.455 51.5 101.455 51.3844 101.452 51.2689C101.324 22.9715 78.6217 0 50.7262 0 22.758 0 0 23.1021 0 51.5 0 79.8953 22.758 103 50.7288 103 63.5636 103 75.813 98.1213 85.2162 89.2658 87.0852 87.5073 87.1958 84.5454 85.4624 82.6512 83.7689 80.7837 80.8821 80.6427 79.0146 82.3362 78.9914 82.3573 78.9686 82.3784 78.9457 82.4 71.324 89.6175 61.2257 93.6391 50.7288 93.637 38.4743 93.637 27.4482 88.2132 19.8438 79.6115L41.5065 44.8276 41.5065 60.8629C41.5065 68.5653 44.4935 71.0549 46.9981 71.7835 49.5053 72.512 53.3364 72.0146 57.3584 65.4829L69.2738 46.1666C69.6556 45.5436 70.0073 45.006 70.3289 44.5412L70.3289 54.3086C70.3289 61.5086 73.2129 67.2665 78.2398 70.1028 82.7718 72.6602 88.4695 72.4291 93.112 69.4999 98.7393 65.9451 101.772 59.3958 101.455 51.5025ZM172.08 33.9071C173.299 34.6482 174.354 36.2962 174.354 37.7809 174.354 40.17 172.324 42.1471 170.05 42.1471 169.483 42.1471 168.915 41.9838 168.428 41.818 165.747 39.8409 162.338 38.522 158.766 38.522 150.325 38.522 144.479 45.4431 144.479 54.0122 144.479 62.5838 150.325 69.422 158.766 69.422 162.986 69.422 166.722 67.6911 169.563 65.0558 170.297 64.5282 171.176 64.2403 172.08 64.2318 174.354 64.2318 176.14 66.0431 176.14 68.3518 176.14 69.834 175.246 71.1529 174.11 71.894 170.05 75.3558 164.531 77.662 158.849 77.662 145.861 77.662 135.304 66.95 135.304 53.766 135.304 40.582 145.858 29.87 158.849 29.87 163.72 29.87 168.345 31.3522 172.08 33.9071ZM195.831 43.878C204.679 43.878 212.147 51.3769 212.147 60.6042 212.147 69.834 204.679 77.662 195.831 77.662 186.576 77.662 178.863 69.834 178.863 60.6042 178.863 51.3769 186.576 43.878 195.831 43.878ZM195.748 69.422C199.647 69.422 202.973 65.714 202.973 60.6871 202.973 55.6627 199.647 52.53 195.748 52.53 191.527 52.53 188.035 55.5798 188.035 60.6871 188.035 65.714 191.527 69.422 195.748 69.422ZM217.712 72.5522 217.712 48.9878C217.712 46.4329 219.742 44.29 222.259 44.29 224.776 44.29 226.886 46.4329 226.886 48.9878L226.886 72.5522C226.886 75.1071 224.776 77.25 222.259 77.25 219.742 77.25 217.712 75.1071 217.712 72.5522ZM216.983 35.3918C216.983 32.342 219.335 29.87 222.259 29.87 225.261 29.87 227.698 32.342 227.698 35.3918 227.698 38.3562 225.261 40.7478 222.259 40.7478 219.335 40.7478 216.983 38.3562 216.983 35.3918ZM244.467 59.7802 244.467 72.5522C244.467 75.1071 242.356 77.25 239.837 77.25 237.322 77.25 235.29 75.1071 235.29 72.5522L235.29 47.9151C235.29 45.938 236.915 44.29 238.865 44.29 240.811 44.29 242.356 45.938 242.356 47.9151 246.09 44.4558 249.335 43.878 252.42 43.878 261.595 43.878 265.655 50.7991 265.655 58.6271L265.655 72.5522C265.655 75.1071 263.544 77.25 261.027 77.25 258.51 77.25 256.48 75.1071 256.48 72.5522L256.48 59.7802C256.48 55.7431 255.993 52.3642 250.23 52.3642 246.17 52.3642 244.464 55.7431 244.464 59.7802ZM295.492 64.6438C294.437 64.6438 293.708 64.1489 293.138 63.4882L282.421 51.8718 282.421 72.5522C282.421 75.1071 280.311 77.25 277.794 77.25 275.276 77.25 273.246 75.1071 273.246 72.5522L273.246 31.6034C273.515 30.8967 274.199 30.4345 274.955 30.4478 275.764 30.4478 276.412 31.1085 276.902 31.6034L293.949 50.8016C294.437 51.3794 295.085 51.7085 295.412 51.7085 295.736 51.7085 296.384 51.3794 296.871 50.8041L313.921 31.6034C314.409 31.1085 315.057 30.4478 315.868 30.4478 316.68 30.4478 317.33 30.9427 317.574 31.6034L317.574 72.5522C317.574 75.1071 315.544 77.25 313.027 77.25 310.51 77.25 308.4 75.1071 308.4 72.5522L308.4 51.8718 297.685 63.4882C297.115 64.1489 296.384 64.6438 295.492 64.6438ZM339.619 69.422C343.759 69.422 347.248 65.714 347.248 60.6871 347.248 55.6627 343.678 52.3642 339.619 52.3642 335.559 52.3642 332.311 55.7431 332.311 60.6871 332.311 65.5482 335.559 69.422 339.619 69.422ZM349.361 73.6249 349.195 72.5522C347.411 76.0944 341.726 77.662 338.074 77.662 329.467 77.662 323.136 69.834 323.136 60.6042 323.136 51.3769 329.63 43.878 338.561 43.878 340.103 43.878 345.218 44.29 349.195 48.9878L349.358 47.9151C349.358 45.938 350.901 44.29 352.85 44.29 354.797 44.29 356.42 45.938 356.42 47.9151L356.42 73.6249C356.42 75.602 354.797 77.25 352.848 77.25 350.901 77.25 349.356 75.602 349.356 73.6249ZM381.876 52.3642 380.904 52.3642C375.139 52.6958 374.003 55.9918 374.003 59.7802L374.003 72.5522C374.003 75.1071 371.893 77.25 369.376 77.25 366.858 77.25 364.829 75.1071 364.829 72.5522L364.829 47.9151C364.829 45.938 366.451 44.29 368.401 44.29 370.35 44.29 371.893 45.938 371.893 47.9151 375.302 44.702 378.063 44.0438 380.904 43.878L381.796 43.878C383.989 43.878 386.016 45.7722 386.016 48.1638 386.016 50.3871 384.069 52.3642 381.876 52.3642ZM417.235 70.4118C417.642 71.07 417.886 71.8111 417.886 72.6351 417.886 75.0242 415.693 77.25 413.339 77.25 411.716 77.25 410.334 76.014 409.279 74.6951L398.728 62.418 398.728 72.5522C398.728 75.1071 396.615 77.25 394.098 77.25 391.581 77.25 389.551 75.1071 389.551 72.5522L389.551 35.1456C389.551 32.5882 391.581 30.4478 394.098 30.4478 396.615 30.4478 398.726 32.5882 398.726 35.1456L398.726 58.4638 409.279 46.762C410.334 45.526 411.633 44.29 413.259 44.29 415.532 44.29 417.642 46.4329 417.642 48.822 417.642 49.5631 417.479 50.3042 417.072 50.9649L408.712 60.1093 417.235 70.4093ZM435.223 52.53C432.706 52.53 428.646 53.8489 428.646 57.7202L441.878 57.7202C441.878 53.766 437.657 52.53 435.22 52.53ZM447.236 63.5711 428.646 63.5711C428.646 69.0929 433.921 69.9169 436.275 69.9169 437.984 69.9169 440.418 69.5878 442.284 68.7613 442.852 68.3518 443.827 68.0202 444.638 68.0202 446.668 68.0202 448.372 69.7536 448.372 71.8136 448.372 73.2129 447.48 74.4489 446.344 75.1071 443.503 77.1671 439.848 77.662 436.358 77.662 427.103 77.662 419.391 72.6376 419.391 61.0162 419.391 51.8718 424.099 43.878 435.059 43.878 443.907 43.878 450.645 49.646 450.808 59.946 450.808 61.9231 449.186 63.5711 447.236 63.5711ZM472.772 77.662 470.255 77.662C463.271 77.662 459.214 74.6122 459.214 63.654L459.214 52.3642 456.86 52.3642C454.667 52.3642 452.72 50.3871 452.72 48.1638 452.72 45.7722 454.667 43.878 456.86 43.878L459.214 43.878 459.214 35.1431C459.214 32.5882 461.244 30.4453 463.761 30.4453 466.276 30.4453 468.389 32.5882 468.389 35.1431L468.389 43.878 472.202 43.878C474.395 43.878 476.345 45.7722 476.345 48.1638 476.345 50.3871 474.395 52.3642 472.202 52.3642L468.389 52.3642 468.389 61.8402C468.389 68.1031 468.713 69.422 471.474 69.422L472.772 69.422C474.963 69.422 476.83 71.2358 476.83 73.542 476.83 75.7678 474.963 77.662 472.772 77.662ZM517.223 33.9071C518.439 34.6482 519.497 36.2962 519.497 37.7809 519.497 40.17 517.467 42.1471 515.193 42.1471 514.626 42.1471 514.055 41.9838 513.571 41.818 510.89 39.8409 507.481 38.522 503.909 38.522 495.468 38.522 489.619 45.4431 489.619 54.0122 489.619 62.5838 495.465 69.422 503.909 69.422 508.129 69.422 511.865 67.6911 514.706 65.0558 515.44 64.5282 516.319 64.2403 517.223 64.2318 519.497 64.2318 521.28 66.0431 521.28 68.3518 521.28 69.834 520.389 71.1529 519.253 71.894 515.193 75.3558 509.672 77.662 503.989 77.662 491.001 77.662 480.447 66.95 480.447 53.766 480.447 40.582 490.998 29.87 503.989 29.87 508.863 29.87 513.488 31.3522 517.223 33.9071ZM540.486 69.422C544.626 69.422 548.116 65.714 548.116 60.6871 548.116 55.6627 544.543 52.3642 540.484 52.3642 536.427 52.3642 533.178 55.7431 533.178 60.6871 533.178 65.5482 536.427 69.422 540.484 69.422ZM550.226 73.6249 550.065 72.5522C548.279 76.0944 542.596 77.662 538.941 77.662 530.337 77.662 524.004 69.834 524.004 60.6042 524.004 51.3769 530.5 43.878 539.429 43.878 540.971 43.878 546.086 44.29 550.065 48.9878L550.226 47.9151C550.226 45.938 551.768 44.29 553.718 44.29 555.665 44.29 557.29 45.938 557.29 47.9151L557.29 73.6249C557.29 75.602 555.665 77.25 553.718 77.25 551.768 77.25 550.226 75.602 550.226 73.6249ZM582.5 69.422C586.56 69.422 589.806 65.5482 589.806 60.6871 589.806 55.7431 586.56 52.3642 582.5 52.3642 578.44 52.3642 574.868 55.6602 574.868 60.6871 574.868 65.714 578.36 69.422 582.5 69.422ZM574.868 74.9438 574.868 86.6431C574.868 89.198 572.758 91.3409 570.241 91.3409 567.726 91.3409 565.694 89.198 565.694 86.6431L565.694 47.9151C565.694 45.938 567.319 44.29 569.268 44.29 571.215 44.29 572.76 45.938 572.76 48.2442 576.167 44.702 580.39 43.878 583.555 43.878 592.486 43.878 598.98 51.3769 598.98 60.6042 598.98 69.834 592.649 77.662 584.043 77.662 581.365 77.662 577.385 76.838 574.868 74.9438Z" fill="#17181B" fill-rule="evenodd" transform="matrix(1.00431 0 0 1 388 637)"/></g></svg>