<svg xmlns="http://www.w3.org/2000/svg" width="64" height="64" viewBox="0 0 64 64"><linearGradient id="1f6ab-a" gradientUnits="userSpaceOnUse" x1="16.998" y1="6.015" x2="47.002" y2="57.985"><stop offset="0" stop-color="#ff3b3b"/><stop offset=".256" stop-color="#fb3737"/><stop offset=".521" stop-color="#f02b2a"/><stop offset=".789" stop-color="#dd1616"/><stop offset="1" stop-color="#c90100"/></linearGradient><path fill="url(#1f6ab-a)" d="M32 2C15.432 2 2 15.432 2 32c0 16.566 13.432 30 30 30 16.568 0 30-13.434 30-30C62 15.432 48.568 2 32 2zm22 30c0 4.629-1.434 8.922-3.877 12.467l-30.59-30.592A21.883 21.883 0 0 1 32 10c12.15 0 22 9.85 22 22zm-44 0c0-4.629 1.434-8.924 3.875-12.469l30.592 30.592A21.89 21.89 0 0 1 32 54c-12.15 0-22-9.852-22-22z"/></svg>